<svg fill="none" height="192" viewBox="0 0 192 192" width="192" xmlns="http://www.w3.org/2000/svg"><path d="m29.56 78.961-7.14 56.232c-1.441 11.347 12.302 18.085 20.39 9.997l27.19-27.19h52l27.19 27.19c8.088 8.088 21.831 1.35 20.39-9.997l-7.14-56.232c-2.538-19.983-19.539-34.961-39.682-34.961h-53.516c-20.143 0-37.144 14.978-39.682 34.961z" stroke="#000" stroke-linejoin="round" stroke-width="12"/><path d="m66 69v12m0 12v-12m0 0h-12m12 0h12" stroke="#000" stroke-linecap="round" stroke-width="12"/><g fill="#000"><circle cx="126" cy="69" r="6"/><circle cx="126" cy="93" r="6"/><circle cx="138" cy="81" r="6" transform="matrix(0 1 -1 0 219 -57)"/><circle cx="114" cy="81" r="6" transform="matrix(0 1 -1 0 195 -33)"/></g></svg>