<?xml version="1.0" ?><!DOCTYPE svg  PUBLIC '-//W3C//DTD SVG 1.1//EN'  'http://www.w3.org/Graphics/SVG/1.1/DTD/svg11.dtd'><svg enable-background="new 0 0 128 128" height="128px" id="Layer_1" version="1.1" viewBox="0 0 128 128" width="128px" xml:space="preserve" xmlns="http://www.w3.org/2000/svg" xmlns:xlink="http://www.w3.org/1999/xlink"><path d="M101.617,114.019h-9.962c-5.861,0-9.223-6.61-12.188-12.442c-2.145-4.217-4.575-8.996-7.013-8.996H53.977  c-2.799,0-5.235,4.803-7.591,9.449c-2.99,5.894-6.081,11.989-11.608,11.989h-9.96c-6.396,0-11.6-5.202-11.6-11.599V59.477  c0-6.396,5.203-11.6,11.6-11.6h76.8c6.396,0,11.6,5.204,11.6,11.6v42.943C113.217,108.816,108.014,114.019,101.617,114.019z   M53.977,88.58h18.479c4.892,0,7.653,5.433,10.578,11.184c2.563,5.041,5.214,10.255,8.622,10.255h9.962c4.19,0,7.6-3.409,7.6-7.599  V59.477c0-4.19-3.409-7.6-7.6-7.6h-76.8c-4.19,0-7.6,3.41-7.6,7.6v42.943c0,4.189,3.409,7.599,7.6,7.599h9.96  c3.071,0,5.598-4.981,8.04-9.798C45.72,94.498,48.721,88.58,53.977,88.58z"/><g><path d="M37.116,84.066c-6.341,0-11.5-5.16-11.5-11.5c0-6.342,5.159-11.5,11.5-11.5s11.5,5.159,11.5,11.5   C48.616,78.906,43.457,84.066,37.116,84.066z M37.116,65.066c-4.136,0-7.5,3.364-7.5,7.5c0,4.135,3.364,7.5,7.5,7.5   s7.5-3.365,7.5-7.5C44.616,68.431,41.252,65.066,37.116,65.066z"/><g><g><path d="M89.741,70.168c-1.104,0-2-0.896-2-2v-4.602c0-1.104,0.896-2,2-2s2,0.896,2,2v4.602     C91.741,69.271,90.846,70.168,89.741,70.168z"/><path d="M89.741,83.566c-1.104,0-2-0.896-2-2v-4.602c0-1.105,0.896-2,2-2s2,0.895,2,2v4.602     C91.741,82.67,90.846,83.566,89.741,83.566z"/></g><g><path d="M85.62,74.566h-4.602c-1.104,0-2-0.896-2-2c0-1.104,0.896-2,2-2h4.602c1.104,0,2,0.896,2,2     C87.62,73.67,86.725,74.566,85.62,74.566z"/><path d="M98.466,74.566h-4.602c-1.104,0-2-0.896-2-2c0-1.104,0.896-2,2-2h4.602c1.104,0,2,0.896,2,2     C100.466,73.67,99.57,74.566,98.466,74.566z"/></g></g></g><path d="M63.042,51.877c-1.104,0-2-0.896-2-2V16.019c0-1.104,0.896-2,2-2s2,0.896,2,2v33.858  C65.042,50.981,64.146,51.877,63.042,51.877z"/></svg>