<?xml version="1.0" ?><svg viewBox="0 0 192.48 195.47" xmlns="http://www.w3.org/2000/svg"><g id="a"/><g id="b"><g id="c"><path d="M4.49,143.46c-.46-3.17-1.48-6.34-1.49-9.56s1.87-5.52,4.63-7.21c6.38-3.92,14.12-5.28,21.49-5.7,6.56-.37,13.09,.17,19.62,.73,5.86,.51,12.56,1.13,17.53,4.57,6.45,4.48,3.17,13.66,2.14,19.99-.3,1.89,2.59,2.7,2.89,.8,1.07-6.66,4.05-15.38-.97-21.16-4.36-5.03-12.1-6.17-18.33-6.88-6.91-.8-13.99-1.38-20.95-1.14-8.14,.27-16.65,1.56-23.86,5.56-3.6,2-6.63,4.72-7.12,9.01-.45,3.94,.95,7.93,1.51,11.79,.28,1.9,3.17,1.09,2.89-.8h0Z"/><path d="M4,125.6c-1.88,1.47-3,3.68-2.14,6.05,.77,2.12,2.64,3.7,4.45,4.92,4.91,3.31,11.17,4.19,16.92,4.87,6.74,.8,13.58,.88,20.36,.8,6.05-.07,12.3-.44,18.09-2.36,4.92-1.64,15.21-7.37,8.95-13.4-1.39-1.34-3.52,.78-2.12,2.12,4.12,3.96-5.95,7.91-8.68,8.71-5.03,1.48-10.31,1.83-15.52,1.92-5.67,.1-11.36,.03-17.02-.4-3.17-.24-6.33-.62-9.45-1.24-2.39-.47-4.9-.97-7.12-1.99-1.87-.86-3.78-1.99-5.15-3.56-1.46-1.66-1.14-3,.56-4.33,1.52-1.19-.62-3.29-2.12-2.12h0Z"/><path d="M2.54,145.92c9.5,5.38,20.02,8.03,30.89,8.53,4.21,.19,8.46,.2,12.68,.19s8.69-.19,12.94-1.02,8.8-2.52,11.87-5.87c1.3-1.42-.81-3.55-2.12-2.12-5.25,5.71-14.51,5.95-21.71,6.01-9.01,.07-18.18,.11-26.99-1.97-5.64-1.33-11.01-3.48-16.06-6.33-1.68-.95-3.2,1.64-1.51,2.59h0Z"/><path d="M4.1,145.88c.78,7.23,2.2,14.38,3.35,21.56s2.29,13.63,4.12,20.3c.51,1.86,3.41,1.07,2.89-.8-1.8-6.55-3-13.23-4.06-19.93-1.12-7.04-2.53-14.04-3.3-21.13-.21-1.9-3.21-1.92-3,0h0Z"/><path d="M63.32,150.28c-1.57,12.51,.91,25.58-2.56,37.84-.53,1.86,2.37,2.66,2.89,.8,3.55-12.55,1.05-25.85,2.66-38.64,.24-1.91-2.76-1.89-3,0h0Z"/><path d="M12.62,188.79c6.78,2.67,13.72,5.06,20.97,6.06,6.38,.89,13.21,.88,19.56-.38,3.77-.75,7.19-2.41,10.13-4.89,1.48-1.25-.65-3.36-2.12-2.12-3.03,2.56-6.71,3.91-10.61,4.42s-7.74,.68-11.57,.49c-8.87-.43-17.34-3.24-25.55-6.48-1.8-.71-2.58,2.19-.8,2.89h0Z"/><path d="M11.17,136.7c8.21-2.84,16.87-3.43,25.49-2.96,4.26,.23,8.55,.61,12.76,1.29,2.13,.34,4.24,.79,6.3,1.43,1.87,.58,3.5,1.7,5.37,2.27s2.64-2.33,.8-2.89c-2.01-.61-3.78-1.8-5.81-2.4s-4.19-1.04-6.32-1.37c-4.33-.67-8.72-1.09-13.09-1.32-8.86-.49-17.85,.14-26.28,3.07-1.81,.63-1.03,3.53,.8,2.89h0Z"/><path d="M14.77,138.18c7.46,.89,14.94,1.78,22.45,2.07,3.71,.14,7.41,.05,11.13-.01s7.13-.17,10.62-.94c1.34-.3,1.36-2.07,.36-2.74-1.3-.87-2.85-1.05-4.37-1.22-1.84-.21-3.67-.51-5.5-.76-4.1-.56-8.23-.92-12.36-1.21-8.12-.57-16.5-1.25-24.44,.99-1.31,.37-1.54,2.68,0,2.89,7.02,.95,14.09,1.08,21.16,1.12s14.45,.42,21.67,.44c1.93,0,1.93-3,0-3-7.07-.02-14.13-.4-21.19-.44-6.95-.04-13.94-.07-20.84-1.01v2.89c7.52-2.12,15.46-1.44,23.15-.92,3.92,.27,7.84,.58,11.73,1.1,1.81,.24,3.61,.54,5.41,.78,1.37,.18,2.88,.16,4.07,.95l.36-2.74c-3.45,.76-6.99,.78-10.52,.85s-7.27,.13-10.92-.02c-7.35-.31-14.66-1.19-21.96-2.05-1.91-.23-1.9,2.77,0,3h0Z"/><path d="M38.79,133.86c.57-3.61,.59-7.21-.19-10.78-.71-3.27-2.07-6.38-3.62-9.34s-3.44-6.01-5.11-9.05c-1.93-3.5-3.52-7.05-3.41-11.13,.06-2.23,.59-4.44,1.39-6.52,.47-1.22,1.67-3.04,.84-4.34-1.03-1.63-3.63-.12-2.59,1.51-.27-.42,.07-.69-.21-.31-.18,.24-.26,.72-.38,1-.31,.75-.63,1.5-.89,2.27-.6,1.8-.99,3.66-1.13,5.56-.29,3.92,.78,7.71,2.55,11.18,2.98,5.83,7.02,11.25,9.01,17.55,1.19,3.77,1.46,7.7,.84,11.61-.3,1.89,2.59,2.7,2.89,.8h0Z"/><path d="M35.48,111.27c.1-3.08,.96-6.22,2.46-8.92,1.42-2.56,3.68-5.04,6.74-5.44l-1.5-1.5c.4,3.79-1.49,7.51-3.62,10.52-.92,1.3-1.97,2.58-3.2,3.6-.5,.41-1.02,.8-1.55,1.17-.26,.18-.52,.36-.78,.54-.1,.06-.23,.13-.32,.2-.26,.21-.5-.07,.48-.08-1.93,.03-1.93,3.03,0,3,.67,0,1.24-.44,1.76-.8,.7-.48,1.38-.99,2.04-1.51,1.5-1.18,2.73-2.64,3.85-4.17,2.56-3.48,4.81-8.03,4.34-12.47-.08-.72-.63-1.61-1.5-1.5-8.03,1.05-11.97,10.11-12.2,17.36-.06,1.93,2.94,1.93,3,0h0Z"/><path d="M26.35,98.42c-4.36-6.54-13.72-9.36-20.68-5.29-.53,.31-.92,1.08-.69,1.69,1.36,3.64,5.18,5.54,8.71,6.57,1.64,.48,3.4,.83,5.12,.88,2.21,.06,4.27-1.09,6.45-1,1.93,.08,1.93-2.92,0-3s-3.73,.8-5.63,.98c-1.48,.14-3.03-.19-4.46-.56-2.55-.66-6.27-1.94-7.29-4.67l-.69,1.69c5.49-3.21,13.11-.97,16.57,4.22,1.07,1.6,3.67,.1,2.59-1.51h0Z"/><path d="M27.6,52.65c-2.9,1.58-5.7,3.43-7.7,6.11-2.12,2.83-3.01,6.47-2.79,9.97,.43,7.02,4.81,14.46,11.96,16.26,6.41,1.62,13.37-1.33,17.61-6.18,4.83-5.52,5.27-13.17,1.18-19.26-2.31-3.44-5.56-6.17-9.58-7.36s-8.29-.72-11.92,1.27c-1.69,.93-.18,3.52,1.51,2.59,5.67-3.12,12.33-1.12,16.35,3.63s4.72,10.73,1.3,15.75c-3.03,4.45-8.76,7.54-14.2,6.94-5.97-.66-9.84-6.11-10.96-11.65-.66-3.27-.25-6.82,1.57-9.66,1.7-2.65,4.47-4.36,7.18-5.83,1.7-.92,.18-3.51-1.51-2.59h0Z"/><path d="M24.01,59.73c3.53,3.45,6.59,7.34,9.48,11.34,1.33,1.84,2.64,3.69,3.89,5.58,1.18,1.78,2.4,3.66,4.06,5.03,1.48,1.22,3.61-.89,2.12-2.12-1.61-1.33-2.73-3.13-3.88-4.85-1.31-1.97-2.68-3.89-4.07-5.8-2.9-3.97-5.96-7.86-9.49-11.3-1.38-1.35-3.5,.77-2.12,2.12h0Z"/><path d="M34.78,82.67c-.63-5.11-.88-10.27-.81-15.42l-1.5,1.5c2.66,.05,5.22,1.1,7.76,1.78,2.75,.74,5.54,1.17,8.25,2.09,1.83,.62,2.62-2.27,.8-2.89-2.8-.95-5.68-1.38-8.52-2.17s-5.43-1.76-8.29-1.82c-.82-.02-1.49,.7-1.5,1.5-.07,5.15,.18,10.31,.81,15.42,.1,.8,.62,1.5,1.5,1.5,.73,0,1.6-.69,1.5-1.5h0Z"/><path d="M69.54,67.7c4.54,4.74,8.89,9.65,12.69,15.02,.43,.61,1.35,1.04,2.05,.54,1.56-1.12,2.22-2.85,2.84-4.6,.41-1.14,.88-3.45,2.23-3.87,1.17-.36,3.33,.55,4.55,.96,1.84,.63,3.63,1.38,5.44,2.08,2.33,.9,4.77,1.53,7.16,2.26,3,.91,5.96,1.9,8.9,2.98,4.37,1.61,8.93,2.91,12.94,5.35,2.34,1.42,3.88,3.22,5.01,5.71s1.92,5.36,3.44,7.78c.44,.7,1.32,.94,2.05,.54,3.25-1.79,6.08-4.21,8.94-6.55s6.05-4.79,9.01-7.28c6.12-5.16,12.05-10.59,17.7-16.27,3.25-3.27,6.41-6.64,9.49-10.08,1.28-1.44-.83-3.56-2.12-2.12-6.78,7.6-14.02,14.74-21.62,21.52-3.79,3.38-7.66,6.66-11.65,9.79-3.67,2.88-7.14,6.15-11.25,8.41l2.05,.54c-2.77-4.41-3.24-9.83-7.57-13.21-4.01-3.13-9.09-4.7-13.84-6.37-2.72-.96-5.42-1.97-8.17-2.84-2.94-.93-5.95-1.68-8.85-2.73-3.55-1.29-7.33-3.47-11.19-3.48-2.18,0-3.64,1.5-4.5,3.39-.48,1.06-.83,2.15-1.23,3.24-.27,.73-.6,1.8-1.27,2.28l2.05,.54c-3.95-5.57-8.43-10.7-13.16-15.62-1.34-1.4-3.46,.73-2.12,2.12h0Z"/><path d="M72.55,66.78c12-4.7,24.93-1.97,37.15,.27,.85,.16,2.02-.39,1.9-1.45-.85-7.42-6.62-12.8-9.23-19.54l-1.85,1.85c5.67,2.04,11.4-2.52,15.32-6.09,2.26-2.06,4.49-4.21,6.53-6.49,2.13-2.4,4.31-5.19,4.98-8.4,.47-2.26,.04-4.83-2.29-5.84-2.6-1.12-5.73,.25-8.07,1.41-5.9,2.91-10.73,8.07-14.13,13.64-1.37,2.25-2.63,4.71-3.34,7.26-.29,1.03-.56,2.28-.11,3.31,.53,1.2,1.77,1.52,2.96,1.16,1.84-.57,1.05-3.47-.8-2.89-.75,.23,.98,.3,.61,.71,.04-.05,.04-.68,.06-.8,.14-.8,.44-1.58,.72-2.34,.63-1.65,1.71-3.68,2.78-5.38,2.8-4.43,6.55-8.47,11.08-11.16,1.77-1.05,4.38-2.59,6.54-2.3,1.75,.24,1.17,2.45,.77,3.6-.86,2.48-2.69,4.63-4.44,6.53-1.64,1.78-3.39,3.47-5.16,5.12-3.25,3.06-8.34,7.83-13.22,6.07-1.02-.37-2.25,.8-1.85,1.85,1.28,3.31,3.22,6.28,5.05,9.3s3.68,6.02,4.07,9.44l1.9-1.45c-12.72-2.33-26.25-5.16-38.75-.27-1.78,.7-1,3.6,.8,2.89h0Z"/><path d="M184.4,.63c-2.49,3.24-6.58,3.68-10.39,3.58-4.16-.11-8.26-.47-12.4,.17-4.14,.64-7.95,2.42-11.03,5.27s-4.87,6.73-6.23,10.61c-.67,1.91-.55,3.7,1.13,4.98,1.21,.91,3.41,1.99,4.85,.98,1.57-1.1,.07-3.7-1.51-2.59,.07-.05,.14-.03-.09-.07-.28-.04-.55-.18-.8-.3-.42-.21-.96-.55-1.01-.84-.11-.62,.33-1.45,.56-2.01,.31-.75,.63-1.5,.94-2.25,1.46-3.65,3.93-6.69,7.35-8.67,3.14-1.81,6.74-2.41,10.32-2.5s7.2,.43,10.79,.18c4.07-.28,7.56-1.74,10.08-5.02,1.18-1.53-1.43-3.03-2.59-1.51h0Z"/><path d="M151.13,17.54c-.06,.18-.13,.35-.19,.52-.1,.25,.12-.28,0-.02-.05,.12-.11,.25-.16,.37-.22,.49-.44,.98-.66,1.47-.49,1.11-.99,2.25-1.24,3.45-.24,1.13-.32,2.41,.33,3.43s1.91,1.55,3.02,1.88,2.42,.62,3.53,.31c.75-.21,1.3-1.07,1.05-1.85s-1.04-1.28-1.85-1.05c-.28,.08-.07-.09,.11,0-.05-.03-.24,.01-.3,0-.12,0-.23,0-.35-.02-.06,0-.13-.01-.19-.02-.16-.02-.13-.02,.1,.01-.16,.07-.69-.13-.86-.17-.29-.07-.59-.16-.87-.26-.08-.03-.52-.24-.15-.05-.12-.06-.25-.12-.37-.19-.08-.04-.29-.13-.33-.2,.18,.15,.21,.17,.09,.07-.04-.04-.08-.07-.12-.11-.19-.13,.18,.31,0,0-.12-.22,.13,.36,0-.03s-.03,.21-.02-.04c0-.13-.01-.26,0-.38,0-.1-.03-.55,0-.11,0-.13,.05-.3,.08-.43,.06-.3,.15-.6,.24-.9,.1-.31,.21-.62,.33-.93,.06-.16,.12-.31,.18-.46,.03-.08,.06-.15,.1-.23-.07,.17-.07,.17,0,.02,.48-1.08,1.04-2.16,1.41-3.29,.25-.75-.28-1.67-1.05-1.85-.83-.19-1.58,.25-1.85,1.05h0Z"/><path d="M155.92,20.14c-.82,2.88-2.92,6.68-.82,9.48,.88,1.17,2.39,2.29,3.91,2.26,1.42-.03,2.49-.92,3.31-2,1.79-2.34,2.65-5.31,6.04-5.66,1.79-.18,3.6,.16,5.39,.26,1.98,.11,3.97-.1,5.9-.57,2.3-.56,4.55-1.51,6.53-2.81,2.11-1.38,3.64-3.37,5.65-4.86,1.53-1.14,.04-3.75-1.51-2.59s-2.79,2.6-4.25,3.83-3.2,2.2-4.99,2.86-3.63,1.08-5.5,1.16c-1.62,.07-3.23-.16-4.84-.27-3.21-.22-6.23,.45-8.33,3.07-.75,.94-1.31,2-1.94,3.02-.31,.5-.89,1.6-1.57,1.55-.51-.04-1.25-.76-1.47-1.15-.32-.56-.21-1.3-.1-1.9,.3-1.68,1.03-3.25,1.5-4.89,.53-1.86-2.37-2.65-2.89-.8h0Z"/><path d="M113.75,27.38c4.51-4.22,9.83-7.69,15.5-10.13,2.9-1.25,5.98-2.21,9.13-2.57,3.32-.38,6.68-.23,10.01-.23,1.93,0,1.93-3,0-3-3.57,0-7.15-.14-10.7,.31-3.33,.43-6.49,1.42-9.57,2.73-6.05,2.57-11.7,6.27-16.5,10.76-1.41,1.32,.71,3.44,2.12,2.12h0Z"/><path d="M170.67,24.59c5.73,4.47,8.63,11.95,8.4,19.11-.06,1.76-.32,3.49-.83,5.17s-1.46,3.21-2.17,4.86c-1.9,4.38,3.21,6.6,6.08,8.79,1.53,1.17,3.03-1.43,1.51-2.59-.93-.71-1.89-1.38-2.84-2.06-.63-.45-2.02-1.16-2.22-1.98-.15-.57,.36-1.29,.61-1.77,.46-.86,.91-1.71,1.27-2.62,1.3-3.2,1.76-6.75,1.55-10.19-.44-7.11-3.54-14.4-9.24-18.85-1.5-1.17-3.64,.93-2.12,2.12h0Z"/><path d="M163.99,28.61c3.83,2.68,6.54,6.5,7.66,11.05,.48,1.98,.67,4.01,.59,6.04s-.38,4.21-1.79,5.65h2.12c-3.19-2.54-6.67-4.64-10.19-6.67s-7.24-4.28-10.83-6.46-7.38-4.53-10.87-7.11c-.86-.63-1.74-1.27-2.53-1.99-.42-.38-1.05-.9-1.14-1.51-.07-.49,.29-.97,.58-1.34,.25-.31,.55-.6,.84-.87,.23-.21,.46-.43,.7-.62-.08,.06-.25,.19-.07,.06,.91-.66,1.9-1.23,2.9-1.74,.49-.25,.99-.47,1.52-.62,.12-.03,.54-.12,.53-.11,.03-.05-.39-.16-.47-.45,.49,1.87,3.38,1.07,2.89-.8-.84-3.21-4.98-1.19-6.77-.2-2.41,1.33-5.7,3.53-5.68,6.61,.02,1.96,1.58,3.39,3,4.51,1.99,1.57,4.05,3.05,6.16,4.45,4.29,2.85,8.74,5.49,13.16,8.13,4.76,2.85,9.78,5.36,14.13,8.84,.63,.5,1.5,.63,2.12,0,3.44-3.52,3.07-9.81,2.06-14.25-1.24-5.49-4.55-10.01-9.12-13.21-1.58-1.11-3.09,1.49-1.51,2.59h0Z"/><path d="M65.04,72.7c-.63,.89-1.25,1.78-1.91,2.64-.04,.05-.08,.1-.11,.15-.12,.16,.19-.24,.06-.08-.09,.11-.17,.22-.26,.33-.17,.21-.35,.43-.53,.64-.35,.41-.71,.8-1.1,1.17-.56,.55-.59,1.58,0,2.12s1.52,.58,2.12,0c1.66-1.62,2.97-3.56,4.31-5.45,.21-.3,.25-.81,.15-1.16s-.36-.73-.69-.9c-.77-.41-1.57-.15-2.05,.54h0Z"/><path d="M57.32,84.49c-1.66,2.71-3.83,5.06-5.57,7.71-.43,.66-.15,1.69,.54,2.05,.75,.4,1.59,.16,2.05-.54,1.74-2.65,3.91-5,5.57-7.71,.41-.67,.17-1.68-.54-2.05s-1.61-.18-2.05,.54h0Z"/><path d="M71.92,77.97c-.87,.97-1.67,2-2.46,3.03-.17,.23-.35,.45-.52,.68-.11,.15,.19-.24,.02-.03l-.12,.16c-.09,.12-.18,.23-.28,.35-.37,.47-.75,.93-1.14,1.38-.52,.59-.62,1.55,0,2.12,.57,.52,1.57,.63,2.12,0,.84-.96,1.61-1.97,2.39-2.98,.08-.11,.16-.21,.25-.32,.21-.27-.14,.18-.02,.02,.04-.05,.08-.11,.12-.16,.19-.24,.37-.48,.56-.71,.39-.48,.78-.96,1.2-1.42,.52-.58,.62-1.55,0-2.12-.57-.53-1.56-.62-2.12,0h0Z"/><path d="M77.25,84.49c-.6,1.06-1.28,2.08-1.99,3.07-.18,.25-.37,.51-.56,.76-.09,.12-.19,.25-.28,.37-.12,.15,0,.01,.05-.06-.05,.07-.1,.13-.16,.2-.36,.46-.73,.92-1.11,1.37-.51,.6-.63,1.54,0,2.12,.56,.51,1.58,.64,2.12,0,1.66-1.97,3.26-4.05,4.52-6.3,.38-.68,.19-1.67-.54-2.05s-1.64-.19-2.05,.54h0Z"/><path d="M63.32,90.27c-1.17,2.14-2.57,4.14-3.86,6.21-.41,.67-.17,1.68,.54,2.05s1.61,.17,2.05-.54c1.29-2.07,2.69-4.07,3.86-6.21,.38-.69,.19-1.67-.54-2.05s-1.65-.2-2.05,.54h0Z"/><path d="M69.56,96.83c-.78,.95-1.47,1.97-2.17,2.98-.16,.23-.32,.46-.48,.68-.08,.11-.16,.22-.24,.33-.05,.06-.09,.12-.14,.18-.12,.16,.03-.04,.07-.09-.36,.44-.71,.87-1.11,1.27-.56,.55-.6,1.57,0,2.12s1.53,.59,2.12,0c.86-.85,1.57-1.84,2.26-2.83,.32-.46,.63-.92,.95-1.37,.17-.24,.34-.47,.51-.71,.04-.05,.07-.1,.11-.15,.14-.18,.04-.05-.04,.05,.1-.12,.19-.23,.28-.35,.26-.32,.44-.64,.44-1.06,0-.37-.16-.81-.44-1.06-.55-.5-1.59-.65-2.12,0h0Z"/><path d="M60.11,110.63c-.93,1.48-1.94,2.9-3,4.29-.22,.29-.24,.83-.15,1.16,.1,.35,.36,.73,.69,.9,.35,.18,.77,.28,1.16,.15l.36-.15c.23-.13,.4-.31,.54-.54,1.06-1.38,2.07-2.81,3-4.29,.42-.67,.16-1.68-.54-2.05-.74-.39-1.61-.17-2.05,.54h0Z"/><path d="M52.4,105.7c-.69,.92-1.33,1.86-1.99,2.8-.32,.46-.64,.91-.97,1.36-.09,.12-.18,.24-.27,.36-.04,.05-.08,.1-.12,.16,.04-.06,.18-.23,.06-.07-.18,.22-.36,.45-.54,.67-.26,.31-.44,.64-.44,1.06,0,.37,.16,.81,.44,1.06,.56,.51,1.58,.64,2.12,0,1.56-1.86,2.85-3.93,4.31-5.87,.22-.29,.24-.82,.15-1.16s-.36-.73-.69-.9c-.35-.18-.77-.28-1.16-.15s-.65,.36-.9,.69h0Z"/></g></g></svg>