<svg height="64" viewBox="0 0 64 64" width="64" xmlns="http://www.w3.org/2000/svg"><g fill="#000" fill-rule="evenodd"><path d="m57 30h-25v-1c0-2.757 2.243-5 5-5h6c3.859 0 7-3.141 7-7s-3.141-7-7-7h-18c-2.757 0-5-2.243-5-5 0-.553-.447-1-1-1s-1 .447-1 1c0 3.859 3.141 7 7 7h18c2.757 0 5 2.243 5 5s-2.243 5-5 5h-6c-3.859 0-7 3.141-7 7v1h-25c-.553 0-1 .447-1 1v28c0 .553.447 1 1 1h52c.553 0 1-.447 1-1v-28c0-.553-.447-1-1-1zm-1 28h-50v-26h50z"/><path d="m13 50h-4c-.553 0-1 .447-1 1v4c0 .553.447 1 1 1h4c.553 0 1-.447 1-1v-4c0-.553-.447-1-1-1zm-1 4h-2v-2h2z"/><path d="m45 50h-28c-.553 0-1 .447-1 1v4c0 .553.447 1 1 1h28c.553 0 1-.447 1-1v-4c0-.553-.447-1-1-1zm-1 4h-26v-2h26z"/><path d="m13 42h-4c-.553 0-1 .447-1 1v4c0 .553.447 1 1 1h4c.553 0 1-.447 1-1v-4c0-.553-.447-1-1-1zm-1 4h-2v-2h2z"/><path d="m13 34h-4c-.553 0-1 .447-1 1v4c0 .553.447 1 1 1h4c.553 0 1-.447 1-1v-4c0-.553-.447-1-1-1zm-1 4h-2v-2h2z"/><path d="m17 48h4c.553 0 1-.447 1-1v-4c0-.553-.447-1-1-1h-4c-.553 0-1 .447-1 1v4c0 .553.447 1 1 1zm1-4h2v2h-2z"/><path d="m17 40h4c.553 0 1-.447 1-1v-4c0-.553-.447-1-1-1h-4c-.553 0-1 .447-1 1v4c0 .553.447 1 1 1zm1-4h2v2h-2z"/><path d="m25 48h4c.553 0 1-.447 1-1v-4c0-.553-.447-1-1-1h-4c-.553 0-1 .447-1 1v4c0 .553.447 1 1 1zm1-4h2v2h-2z"/><path d="m25 40h4c.553 0 1-.447 1-1v-4c0-.553-.447-1-1-1h-4c-.553 0-1 .447-1 1v4c0 .553.447 1 1 1zm1-4h2v2h-2z"/><path d="m33 48h4c.553 0 1-.447 1-1v-4c0-.553-.447-1-1-1h-4c-.553 0-1 .447-1 1v4c0 .553.447 1 1 1zm1-4h2v2h-2z"/><path d="m33 40h4c.553 0 1-.447 1-1v-4c0-.553-.447-1-1-1h-4c-.553 0-1 .447-1 1v4c0 .553.447 1 1 1zm1-4h2v2h-2z"/><path d="m41 48h4c.553 0 1-.447 1-1v-4c0-.553-.447-1-1-1h-4c-.553 0-1 .447-1 1v4c0 .553.447 1 1 1zm1-4h2v2h-2z"/><path d="m41 40h4c.553 0 1-.447 1-1v-4c0-.553-.447-1-1-1h-4c-.553 0-1 .447-1 1v4c0 .553.447 1 1 1zm1-4h2v2h-2z"/><path d="m49 48h4c.553 0 1-.447 1-1v-4c0-.553-.447-1-1-1h-4c-.553 0-1 .447-1 1v4c0 .553.447 1 1 1zm1-4h2v2h-2z"/><path d="m49 56h4c.553 0 1-.447 1-1v-4c0-.553-.447-1-1-1h-4c-.553 0-1 .447-1 1v4c0 .553.447 1 1 1zm1-4h2v2h-2z"/><path d="m49 40h4c.553 0 1-.447 1-1v-4c0-.553-.447-1-1-1h-4c-.553 0-1 .447-1 1v4c0 .553.447 1 1 1zm1-4h2v2h-2z"/></g></svg>