<svg height="90" viewBox="0 0 90 90" width="90" xmlns="http://www.w3.org/2000/svg"><g fill="none" fill-rule="evenodd"><path d="m176 343c0 23.748-19.252 43-43 43s-43-19.252-43-43 19.252-43 43-43 43 19.252 43 43" fill="#c8ebf5" transform="translate(-88 -298)"/><g transform="translate(17 25)"><path d="m49 0h-42c-1.657 0-3 1.343-3 3v29h48v-29c0-1.657-1.343-3-3-3" fill="#4baadc"/><path d="m56 32v3c0 1.657-1.343 3-3 3h-50c-1.657 0-3-1.343-3-3v-3z" fill="#4baadc"/><path d="m8 28h40v-24h-40z" fill="#fff"/><g stroke-linecap="round" stroke-linejoin="round" stroke-width="2"><path d="m52 32v-29c0-1.657-1.343-3-3-3h-42c-1.657 0-3 1.343-3 3v29" stroke="#1e69a0"/><path d="m56 32v3c0 1.657-1.343 3-3 3h-50c-1.657 0-3-1.343-3-3v-3z" stroke="#1e69a0"/><path d="m8 28h40v-24h-40z" stroke="#1e69a0"/><path d="m22 11-6 5 6 5" stroke="#4baadc"/><path d="m34 11 6 5-6 5" stroke="#4baadc"/><path d="m26 24 4-16" stroke="#4baadc"/></g></g></g></svg>