<svg height="64" viewBox="0 0 64 64" width="64" xmlns="http://www.w3.org/2000/svg"><g fill="#000" fill-rule="evenodd"><path d="m59 44h-3v-28c0-2.206-1.794-4-4-4h-42c-2.206 0-4 1.794-4 4v28h-3c-.552 0-1 .448-1 1v3c0 2.206 1.794 4 4 4h50c2.206 0 4-1.794 4-4v-3c0-.552-.448-1-1-1zm-51-28c0-1.103.897-2 2-2h42c1.103 0 2 .897 2 2v28h-46zm50 32c0 1.103-.897 2-2 2h-50c-1.103 0-2-.897-2-2v-2h54z"/><path d="m51 16h-40c-.552 0-1 .448-1 1v24c0 .552.448 1 1 1h40c.552 0 1-.448 1-1v-24c0-.552-.448-1-1-1zm-1 24h-38v-22h38z"/><path d="m24.36 34.768c.187.156.414.232.64.232.287 0 .571-.123.769-.36.354-.424.296-1.055-.128-1.408l-5.079-4.232 5.078-4.232c.424-.354.481-.984.128-1.408-.354-.424-.984-.482-1.408-.128l-6 5c-.228.19-.36.471-.36.768s.132.578.36.768z"/><path d="m36.232 34.64c.198.237.482.36.769.36.226 0 .453-.076.64-.232l6-5c.228-.19.36-.471.36-.768s-.132-.578-.36-.768l-6-5c-.424-.354-1.055-.296-1.408.128-.354.424-.296 1.055.128 1.408l5.078 4.232-5.078 4.232c-.425.353-.483.984-.129 1.408z"/><path d="m28.757 37.97c.082.021.163.03.244.03.448 0 .855-.303.969-.757l4-16c.134-.536-.192-1.079-.728-1.213-.533-.135-1.078.192-1.213.728l-4 16c-.133.535.193 1.078.728 1.212z"/></g></svg>